<svg xmlns="http://www.w3.org/2000/svg" xmlns:xlink="http://www.w3.org/1999/xlink" viewBox="0 0 136.68 249.02"><defs><radialGradient id="radial-gradient" cx="132.01" cy="148.45" r="58.84" gradientUnits="userSpaceOnUse"><stop offset="0" stop-color="#e8e8e8"/><stop offset="1" stop-color="#989898"/></radialGradient><linearGradient id="linear-gradient" x1="213.5" y1="121.1" x2="215.76" y2="120.49" gradientUnits="userSpaceOnUse"><stop offset="0" stop-color="#bebebe"/><stop offset="1" stop-color="#a9a9a9"/></linearGradient><radialGradient id="radial-gradient-2" cx="201.97" cy="137.67" r="41.58" gradientTransform="matrix(0.77, 0.64, -0.26, 0.31, 82.65, -34.34)" gradientUnits="userSpaceOnUse"><stop offset="0" stop-color="#e8e8e8"/><stop offset="0.22" stop-color="#e4e4e4"/><stop offset="0.44" stop-color="#d7d7d7"/><stop offset="0.68" stop-color="#c2c2c2"/><stop offset="0.91" stop-color="#a5a5a5"/><stop offset="1" stop-color="#989898"/></radialGradient><linearGradient id="linear-gradient-2" x1="151.51" y1="67.86" x2="189.3" y2="79.32" gradientUnits="userSpaceOnUse"><stop offset="0" stop-color="gray"/><stop offset="1" stop-color="#e8e8e8"/></linearGradient><linearGradient id="linear-gradient-3" x1="195.31" y1="177.51" x2="199.32" y2="176.44" gradientUnits="userSpaceOnUse"><stop offset="0" stop-color="#bebebe"/><stop offset="0.06" stop-color="#bbb"/><stop offset="0.65" stop-color="#a1a1a1"/><stop offset="1" stop-color="#989898"/></linearGradient><linearGradient id="linear-gradient-4" x1="166.42" y1="161.94" x2="212.73" y2="313.06" gradientUnits="userSpaceOnUse"><stop offset="0" stop-color="#e8e8e8"/><stop offset="0.04" stop-color="#d3d3d3"/><stop offset="0.11" stop-color="#b3b3b3"/><stop offset="0.17" stop-color="#9f9f9f"/><stop offset="0.21" stop-color="#989898"/><stop offset="0.28" stop-color="#b3b3b3"/><stop offset="0.4" stop-color="#d9d9d9"/><stop offset="0.46" stop-color="#e8e8e8"/><stop offset="0.68" stop-color="gray"/><stop offset="0.94" stop-color="#e8e8e8"/></linearGradient></defs><title>sslogo</title><g style="isolation:isolate"><g id="Layer_2" data-name="Layer 2"><g id="Layer_1-2" data-name="Layer 1"><g style="opacity:0.2;mix-blend-mode:multiply"><polygon points="15.81 0 0 42.46 40.63 128.62 64.21 99.82 71.12 64.17 15.81 0" style="fill:#001022;opacity:0.1"/><polygon points="73.78 17.26 15.81 0 71.12 64.17 111.89 71.17 73.78 17.26" style="fill:#001022;opacity:0.30000000000000004"/><polygon points="136.68 153.9 111.89 71.17 71.12 64.17 64.21 99.82 136.68 153.9" style="fill:#001022;opacity:0.8"/><polygon points="117.78 233.22 136.68 153.9 64.21 99.82 40.63 128.62 45.27 201.92 83.38 249.02 117.78 233.22" style="fill:#001022"/><polygon points="0 131.9 0 42.46 40.63 128.62 45.27 201.92 0 131.9" style="fill:#001022;opacity:0.5"/></g><path d="M214.78,145.22" transform="translate(-107.95 -54.1)" style="fill:#aa6868"/><path d="M155.69,228.11a10.06,10.06,0,0,0-1.72-1.46,3.57,3.57,0,0,0-1.54-.52c-.37,0-.74,0-1.11,0h0a2.68,2.68,0,0,1-2.11-.68,3.82,3.82,0,0,0-1.43-.74,2.38,2.38,0,0,1-1.54-1,4.15,4.15,0,0,0-1-.67,14.81,14.81,0,0,1-2.87-2.42,1.08,1.08,0,0,1-.34-.48,1.83,1.83,0,0,0-1-1.18,4,4,0,0,1-1.24-1,10.93,10.93,0,0,0-2.61-2.13c-.1-.06-.21-.21-.29-.19-.43.1-.71-.3-1.15-.3s-.36-.68-.71-.9a1.67,1.67,0,0,1-.65-1c-.19-.61-.84-.77-1-1.33s-.8-.68-1.36-.76c-.1,0-.18-.23-.27-.23-.38,0-.66-.51-1.11-.16s-.22.67-.26,1c-.29.22-.63.06-.94.11a3.14,3.14,0,0,0-1.18.19,1.13,1.13,0,0,1-1.35-.26,4.73,4.73,0,0,0-1.09-.82,3.33,3.33,0,0,1-1.15.5L123.45,210a2.79,2.79,0,0,0,2.12-.64.6.6,0,0,1,.77,0c.67.4,1.06.7,1.79,1.12,1-1.05,2.47-1.47,3.39-2.66,0-.49.19-1-.35-1.42-.26-.2-.09-.55-.11-.83,0-.67.12-1.38-.43-1.94-.32-1.47-1-2.86-.83-4.41a2.74,2.74,0,0,0-.65-2.12c-.16-.19-.68-.6-.13-1-.15-.17-.42-.34-.44-.53a7.53,7.53,0,0,0-1-2.72.38.38,0,0,1,0-.23c.16-.95-.4-1.83-.26-2.78,0-.27-.15-.54-.19-.78-.08-.46-.39-.87-.32-1.38a8.91,8.91,0,0,0,0-1.37l-.46-.45c.12-.23.34-.51.19-.74a.94.94,0,0,1,0-1.3c-.24-.44-.1-1-.27-1.38-.55-1.28-.34-2.62-.51-3.93-.15-1.05-.06-2.12-.26-3.14s0-1.8-.24-2.65a17.73,17.73,0,0,1-.21-3.4c0-.4-.32-.72-.27-1.15s.13-.82-.23-1.14a1.62,1.62,0,0,0-.23-1.7.29.29,0,0,1,0-.24c.64-.91,0-1.76,0-2.6-.4-.15-.55.11-.67.29a7.13,7.13,0,0,0-1.18,2.39,2.41,2.41,0,0,1-1.24,1.45c-.5.27-.75.74-1.38,1a4.1,4.1,0,0,0-2.4,1c-1.06.71-1.4,1.82-2,2.79a1.19,1.19,0,0,0-.09.71c0,1.09,0,2.17,0,3.25a4.19,4.19,0,0,1-.37,2.1,2.62,2.62,0,0,0,0,2.14,1.17,1.17,0,0,1,.09.82c-.55,1.07,0,2,.38,2.9a8.35,8.35,0,0,0,.84,1.91c.12.16.05.48.06.72a5.22,5.22,0,0,0,.48,3.06.62.62,0,0,1,0,.36,5.08,5.08,0,0,0,.76,2.94,2.16,2.16,0,0,1,0,2.16c-.74,1.21-.42,2.52-.49,3.8.64.65,0,1-.16,1.58l-1.32-2a13.64,13.64,0,0,1,.18-3.24,4.71,4.71,0,0,0-.46-3.27c-.08-.18-.29-.28-.25-.53.19-1.15-.31-2.26-.23-3.39a5.21,5.21,0,0,0-.3-1.39,6,6,0,0,0-1-2.84c-.33-.41-.16-.9-.4-1.34a1.21,1.21,0,0,1,.15-1.36c.06-.08,0-.26,0-.37.16-.35-.49-.55-.18-.86s.16-.54.17-.81a8.34,8.34,0,0,1,0-1c.1-.53.3-1,.4-1.57a2.81,2.81,0,0,0-.22-2.33,6.21,6.21,0,0,0-1.69-1.62,10.53,10.53,0,0,0-3.12-1.53A2.74,2.74,0,0,1,108,170V167.9a17.79,17.79,0,0,1,2.53,1.35c.7.43,1.46.72,2.16,1.14.25.16.54.37.76.22s.77-.2.88-.59a10.33,10.33,0,0,1,.84-1.53,6,6,0,0,1,1.55-2.11,2,2,0,0,1,.93-.48,5.2,5.2,0,0,0,3-1.63,2,2,0,0,0,.51-1,6.87,6.87,0,0,1,2.05-4,2.41,2.41,0,0,0,1-2,3.23,3.23,0,0,1,.36-1.1c.18-.56.27-1.14.4-1.71a16.09,16.09,0,0,0,.21-3.53c0-.48.4-.87.27-1.4a1.92,1.92,0,0,1,.26-1.5c.28-.44.07-1,.37-1.35a.73.73,0,0,0,.1-.58,8.18,8.18,0,0,1,.53-2.91,3.41,3.41,0,0,0,.23-1,6.14,6.14,0,0,1,.44-2.57,5.07,5.07,0,0,0,.08-1.26,1.35,1.35,0,0,1,.18-.24c.36-.41.93-.7,1.08-1.32.54-.09,1-.53,1.51-.55s1.15-.38,1.77-.3a1.42,1.42,0,0,0,1-.47,3.42,3.42,0,0,1,.91-.51c.52-.16,1.11-.19,1.23-.89.94-.43,1.42-1.37,2.21-1.93a12,12,0,0,1,1.86-.94c.1,0,.27,0,.35-.06a4.17,4.17,0,0,1,3.09-.69,16.49,16.49,0,0,0,4.16-.82c.13,0,.24-.16.42-.19.86-.14,1.3-.52,1.39-1.35a5,5,0,0,1,.38-1.35,2.47,2.47,0,0,0,0-1.52c-.11-.46-.3-.88-.43-1.33a8.65,8.65,0,0,0-1.11-2.16c-.25-.4-.43-.84-.7-1.21a2,2,0,0,1-.4-1.58c.17-.83-.44-1.41-.58-2.15a5,5,0,0,0-1.22-2.23,2,2,0,0,1-.46-1.44,4.66,4.66,0,0,0-1.3-3.33,6.22,6.22,0,0,1-1.22-2.88,4.44,4.44,0,0,0-1.17-2.51c-1.15-1.11-2.08-2.44-3.24-3.55a2.29,2.29,0,0,1-.82-1.89,1.19,1.19,0,0,0-.37-1,2.41,2.41,0,0,1-.63-2c0-.13,0-.25,0-.38,0-.84-.09-.9-.93-.92a5.2,5.2,0,0,0-2.51.58,7.5,7.5,0,0,1-3.74.93c-1-.05-1.92,0-2.87,0a7.29,7.29,0,0,0-2.81.47,7.46,7.46,0,0,1-1.18.15c-1.22.28-2.34.82-3.53,1.17a16.5,16.5,0,0,1-2.78.21c-.4-.46-.93-.21-1.4-.24s-1.25,0-1.87,0-1.1.14-1.45-.44c-.76.1-1.46-.6-2.19-.66l-.1-.22.61-1.64a26.12,26.12,0,0,0,2.92.76,5.63,5.63,0,0,0,2,.16,1.88,1.88,0,0,1,1.32,0,1.31,1.31,0,0,0,1.15-.19,3.55,3.55,0,0,1,1.65-.51,19.94,19.94,0,0,0,4.32-1.07,7.64,7.64,0,0,1,2.31-.45c.92,0,1.83,0,2.75,0,.39,0,.83.17,1.17-.21,0-.05.24,0,.32,0,.67.43,1.31.12,1.94-.08.14-.05.2-.29.4-.24.75.18,1.42-.27,2.15-.27a1.82,1.82,0,0,0,1.78-2.3c-.59-1.37.19-2.19.86-3.09a15.8,15.8,0,0,1,1.57-1.6,5.47,5.47,0,0,0,1.62-4A8.79,8.79,0,0,0,136.36,76a11.23,11.23,0,0,0-4.3-2.9,9.51,9.51,0,0,0-2.8-.81,7.2,7.2,0,0,1-1.94-.43,23.67,23.67,0,0,0-2.81-.75c-.9-.22-1.78-.57-2.68-.76-1.26-.26-2.49-.91-3.84-.79l.3-.81c1.16,0,2.68.12,3.85.07.34,0,.45.37.77.27.37.62,1,.55,1.54.48a1.8,1.8,0,0,1,1.25.32,2.38,2.38,0,0,0,1.82.44c1-.14,1.83.38,2.77.26.21,0,.27.16.39.25s.2.28.4.25c.5-.08.94.21,1.4.22a2.23,2.23,0,0,1,1.55.52c.34.32.82.21,1.23.34a7.16,7.16,0,0,1,2.59,1.59l.73.73c-.32,1.05.68,1.2,1.24,1.72A3.94,3.94,0,0,0,141.54,80c.14,1.14-.4,2.19-.25,3.31a1.18,1.18,0,0,1-.53,1c-.51.39-.54,1.06-1,1.49.13.68-.42,1-.83,1.26a12.23,12.23,0,0,0-2,1.81,1.13,1.13,0,0,0-.41.69,6.87,6.87,0,0,0,0,2.22c.11.4.12.78.19,1.17s-.15.73.19,1a.44.44,0,0,1,0,.57.75.75,0,0,0-.16.91c.27.47.19,1.11.65,1.48a2.6,2.6,0,0,1,.8,1.17,2,2,0,0,0,.52.66,6.88,6.88,0,0,1,1.55,2c.2.54.84.9,1.28,1.35.2.2.6.43.58.61-.06.61.65.84.59,1.4a.19.19,0,0,0,0,.13,7.12,7.12,0,0,1,1,2.23,9.93,9.93,0,0,1,.8,2.17c0,.31.34.45.53.65a3.6,3.6,0,0,1,1,1.47c.08.26.34.41,0,.71s-.09.43,0,.67a16.81,16.81,0,0,1,.68,1.84,8.36,8.36,0,0,0,.87,1.78,4.23,4.23,0,0,1,.84,2.89,3.41,3.41,0,0,0,1.33,3.19,7.19,7.19,0,0,1,1.34,1.82c.46.73.57,1.64,1.22,2.25a.32.32,0,0,1,.1.2c-.18.91.36,1.75.26,2.65a5.12,5.12,0,0,0-1.29,1.72,1.72,1.72,0,0,1-1.33.91,5.82,5.82,0,0,1-2.29.5.37.37,0,0,0-.24,0,3.1,3.1,0,0,1-2.55.45c-1.16-.08-2.26.33-3.4.27-.76.48-1.8.32-2.42,1.12-.25.32-.32.71-.59,1.09h-1a8.93,8.93,0,0,1-2.39,2.13,12.84,12.84,0,0,1-3,1.18,18.44,18.44,0,0,0-2.87.92,1.39,1.39,0,0,0-.82,1.05l0,.17a5.65,5.65,0,0,0-.29,1.84c0,.45.21,1-.21,1.41s.48.63.14,1.1c-.19.26-.47.57-.4.95a1.55,1.55,0,0,1-.35,1.22c-.26.35,0,.76-.25,1a3.21,3.21,0,0,0-.54.78,1.23,1.23,0,0,0-.09,1.06,3.37,3.37,0,0,1,0,2.68,8.37,8.37,0,0,0-.49,2.8c0,1.12,0,2.25,0,3.37a2.44,2.44,0,0,0,.21,1.54c.15.22.06.65,0,1a3.12,3.12,0,0,0,0,2.19c0,.2.11.5,0,.6-.54.55-.09,1.09.06,1.55a2.35,2.35,0,0,1,.19,1.15c-.12.57.3,1,.28,1.53s-.17,1.06.23,1.53c.06.07,0,.24,0,.36-.07.46-.49.91-.16,1.36s.07.88.17,1.31v.13c0,.49.5.78.51,1.29s-.18.93.11,1.32.12.55.12.83c0,1.33,0,2.66,0,4a3,3,0,0,0,.4,2.2c.13.16,0,.19-.06.27a1.77,1.77,0,0,0,.09,1.51.69.69,0,0,1,.06.48,2.87,2.87,0,0,0,.26,1.39c.15.36.45.69.46,1.05s-.26.64-.22,1a4.4,4.4,0,0,0,.22,1.28,2.53,2.53,0,0,1,.3,1.26,5.22,5.22,0,0,0,0,1.25,2.1,2.1,0,0,0,.15,1.06,20.43,20.43,0,0,1,1.34,3.57,13.62,13.62,0,0,1,.55,2.53,7.85,7.85,0,0,0,.8,2.78c.09.15.18.27.14.44a8.56,8.56,0,0,0,.31,2.52c.07.75.41,1.49.55,2.26a3.21,3.21,0,0,1,.14.81,3,3,0,0,0,.72,1.83,5.54,5.54,0,0,0,.63.85,6.15,6.15,0,0,1,1.42,2.17,1.15,1.15,0,0,0,1,.63c.54.09.79.48,1.18.75,1.12.78,1.88,2,3.19,2.54.65.26,1.35.48,1.57,1.28,1.14,1.13,2.06,2.46,3.27,3.53a8.84,8.84,0,0,0,1.36.93,7,7,0,0,1,2.27,1.73,2.43,2.43,0,0,1,1.17.25l.18.11a2.76,2.76,0,0,0,1.85.42,1.85,1.85,0,0,1,1.37.57,8,8,0,0,1,1.61,1.3C156,227.21,156.27,227.75,155.69,228.11Z" transform="translate(-107.95 -54.1)" style="fill:url(#radial-gradient)"/><path d="M215.31,124.38v.11l-.95-.16a1.56,1.56,0,0,0-.1-1c-.32-.43.06-1-.45-1.32a11.14,11.14,0,0,1,.12-2.89c.12-.32-.45-.6.07-.91.17-.1.17-.7,0-1.12l1.3,1.84c0,.09-.08.16-.27.16a.22.22,0,0,0-.16-.24.23.23,0,0,0-.1.19c0,.16,0,.29.22.29a3.51,3.51,0,0,1,0,.5c-.24,0-.25.14-.25.31V122c.24.19.24-.12.38-.13a.32.32,0,0,1,.07.41,3.15,3.15,0,0,0-.07,2.08S215.26,124.38,215.31,124.38Z" transform="translate(-107.95 -54.1)" style="fill:url(#linear-gradient)"/><path d="M236.89,182.2h0c-.25.1-.45-.26-.68-.29s-.28.19-.53.17-.47-.2-.77-.22a6.56,6.56,0,0,0-1.34.29c-1,.19-1.58.5-2.5.1-.32-.14-.6-.41-.92-.52s-.65,0-.93-.16a11.79,11.79,0,0,1-1.75-1c-.49-.34-1.05-1.24-1.58-1.44-.14-.05-.42.08-.55,0s-.18-.27-.36-.41a7,7,0,0,1-1.37-1.35,9.49,9.49,0,0,1-.75-.82c-.16-.25-.08-.53-.27-.8s-.39-.19-.54-.42-.16-.66-.4-1c-.53-.68-1.2-1.27-1.75-1.94a7.72,7.72,0,0,0-.59-.79,2,2,0,0,0-.49-.2c-.84-.83-1.32-2.16-2.14-3-.17-.18-.61-.32-.83-.5s-.56-.57-.89-.82-1.35-.52-1.65-1.06c-.49.64-.37.72-.38,1.46a5.78,5.78,0,0,0-.11,1.2,1.5,1.5,0,0,0,.49.81,6,6,0,0,1-.2,2.89,3.57,3.57,0,0,0-.29,1c0,.42.25.7.16,1.2a14.27,14.27,0,0,0-.32,4.88c.26,1.5,1,2.79,1.13,4.37a11.41,11.41,0,0,0,0,1.17L212,183.67a4.58,4.58,0,0,0-.23-1.26,14.81,14.81,0,0,1-.78-5,22.55,22.55,0,0,1,.67-3,14.37,14.37,0,0,0-.14-2c0-.39,0-.77-.08-1.15-.24-.2.05-.8.08-.89,0-.28-.15-.51-.18-.73s.1-.33.08-.49c-.15-1.19,0-3.39-1.27-4.09a4.49,4.49,0,0,0-2.35-.36,4.62,4.62,0,0,1-1.39,0c-.27-.11-.46-.48-.69-.65a16.16,16.16,0,0,1-1.73-1c-.53-.46-1-1-1.55-1.44,0,0-1.39-.6-1.45-.83a2.54,2.54,0,0,0-.35-.57,6.76,6.76,0,0,1-1.45-1,1.53,1.53,0,0,0-1.28-.52c-.51.06-.61-.44-.89-.63l-1.29-1.08c-.62-.25-1,.12-1,.83,0,.89.42,1.74.25,2.65,0,.06.05.15.09.21a11.39,11.39,0,0,1,.92,2.37,11.87,11.87,0,0,1,.85,2.65,10.94,10.94,0,0,0,.6,1.24,4.3,4.3,0,0,0,.62,1.25,8.52,8.52,0,0,1,.64,1.73c.43,1.07.4,1.29-.08,3-.07.25.23.56-.14.73v.05l-1.18-.87a1.13,1.13,0,0,1,.27-.32c.34-.28-.25-.37-.09-.58a.52.52,0,0,0,0-.67c-.13-.19.41-.39,0-.69-.16-.12.1-.58-.12-.81s0-.57-.17-.8c-.26-.53-.6-1-.88-1.52a4,4,0,0,1-.38-1.22,8.36,8.36,0,0,0-1.21-3.12,4.44,4.44,0,0,1-.84-1.78c-.14-.9-.6-1.75-.83-2.64a17.24,17.24,0,0,1-.31-1.74,4.19,4.19,0,0,0-.3-1.38,3.44,3.44,0,0,1-.24-1.41,6.88,6.88,0,0,1-.21-2.33c.52-.58,1.27-.67,1.86-1.07s.92-.49.85-1.14c0-.25.1-.49.26-.5.58-.05,1.1-.54,1.69-.3a1.45,1.45,0,0,0,1.36,0c.06,0,.15-.09.21-.07.69.22,1.2-.24,1.63-.58a4.76,4.76,0,0,1,2.25-.94,2.6,2.6,0,0,0,1.81-1.6c-.07-.28-.52-.36-.46-.76a.36.36,0,0,0-.07-.34,5.68,5.68,0,0,1-1-2.47c0-.13-.22-.23-.18-.42A8.18,8.18,0,0,0,202,139a14.23,14.23,0,0,0-.84-2.89c-.14-.41-.45-.75-.37-1.22,0-.21-.13-.29-.24-.4a.65.65,0,0,1-.26-.52c.07-1.29-.6-2.49-.52-3.79a1.71,1.71,0,0,0-.39-1.08,2.76,2.76,0,0,1-.61-1.37c-.1-.65-.73-1.1-.74-1.83s-.74-1-.79-1.68c0-.35-.59-.59-.79-1s-.09-.73-.28-1.1c0,0,.07-.09.1-.13a0,0,0,0,0,0,0l-.07-.07-.08.07s0,0,0,0h0a.74.74,0,0,1-.53-.8v-.09c0-.13-.05-.24-.24-.22a3.21,3.21,0,0,0-.75-1.75c-.32-.41-1-.31-1.2-.84a1.25,1.25,0,0,0-1.11-.95c-.17,0-.27-.5-.45-.73-.29-.38-.16-.95-.63-1.25a15.76,15.76,0,0,0-1.35-1,3.16,3.16,0,0,1-.65-.54c-.4-.34-.55-.87-1-1.23s-.83-.56-.91-1.12a.11.11,0,0,0-.08-.08c-.37,0-.34-.43-.52-.5-.74-.28-1.09-1-1.65-1.44a.65.65,0,0,0-.58-.1.59.59,0,0,1-.61-.34,2.68,2.68,0,0,0-1.63-1.15c-.19-.07-.46-.05-.51-.25-.24-.83-.87-.84-1.54-.76-.68-.85-1.7-1.3-2.38-2.13a4.65,4.65,0,0,1-.78-1.31c-.36-.88-.47-1.94-1.34-2.57-.36-1.09-1.34-1.69-2-2.54a3.44,3.44,0,0,1-1.11-2.66c.07-.44-.23-.74-.42-1.08-.38-.68-.82-1.32-1.22-2a3.69,3.69,0,0,1-.2-.47,2.6,2.6,0,0,1-1.21-.35,1.82,1.82,0,0,0-1.94.09c-.27,0-.4-.24-.52-.46l.36-.8c1,.18,2-.49,3.07-.19.12.33.21.72.69.7a.83.83,0,0,1,.82.61c0,.66.5.91.85,1.29a1.58,1.58,0,0,1,.26.52,12.61,12.61,0,0,0,2,2.93,7.57,7.57,0,0,1,.73,1.08c.07.13.09.37.23.39.6.12.7.71,1.05,1a5.07,5.07,0,0,1,.9,1.38,9.15,9.15,0,0,0,2.24,3c1.09-.19,2.18.43,3.33.24,1,.57,1.9.08,2.84-.19a5.52,5.52,0,0,1,.72-.06c.55-.07,1.11.14,1.66-.23.34-.23.73.21,1.12.28a6.1,6.1,0,0,0,.91.2,3.26,3.26,0,0,1,1.53.23c.4.2,1-.19,1.4.26,0,.06.25.05.36,0,1.14-.52,2.35-.22,3.52-.2a9.76,9.76,0,0,1,2.23.61c.53.14,1,.53,1.6.33.3-.11.35.45.72.1s.49.35.76.37.44.39.76.3c.15.73.86.5,1.3.74s.79.23.94.72a.43.43,0,0,0,.49.29,1.21,1.21,0,0,1,1.14.51l0,.06s0,0,0,0l1.26,1.8c-.21.21-.94,0-1.15.36-1-.95-2.18-1.59-3.11-2.58-.22-.23-.38-.22-.61,0s-.36-.12-.47-.19c-1.1-.69-2.43-.8-3.53-1.44-.33-.19-.4.2-.71.1a10.21,10.21,0,0,0-4.24-.63c-.39.05-.69-.47-1-.24-.59.42-1,.17-1.49-.16-.28-.2-.56-.06-.83-.11s-.74.14-1.05-.22a.46.46,0,0,0-.56,0c-.11.11,0,.33-.17.41s-.39-.11-.52-.26-.24-.21-.47,0-.6.15-.69,0c-.4-.49-.74,0-1.06,0A14.07,14.07,0,0,1,183,105a3,3,0,0,0-1.62-.06c0,.35.27.19.4.19a1.84,1.84,0,0,1,1.26.6,2.7,2.7,0,0,0,.84.68,6.36,6.36,0,0,1,2.22,1.61c.51.51.89,1.19,1.65,1.43.21.71.86,1.06,1.33,1.56s1,.68,1,1.45c0,.14.24.31.4.42a5.41,5.41,0,0,1,2.34,2.66,1.56,1.56,0,0,0,1.41,1.05,2.75,2.75,0,0,1,2,1.06c.22.24.61.24.74.68a4.73,4.73,0,0,1,.13.81l-.19.07c-.06,0-.05.12,0,.15s0,0,.07,0l.08-.07v0c.38,0,.46.53,1,.46a1.27,1.27,0,0,0,.51,1.38.63.63,0,0,1,.24.63c0,.13,0,.26-.06.38s-.67.26-.23.73c.14.16,0,.62-.13.83s0,.64-.13.94c.47.14.84.27.79.81a1.06,1.06,0,0,0,.66,1.09.83.83,0,0,1,.35.47c.49,1.35.66,2.78,1.2,4.13a13.07,13.07,0,0,1,.26,1.76,2.89,2.89,0,0,0,.42,1.07c.19.28.45.48.36.86.48.36.16,1,.45,1.44a5.78,5.78,0,0,1,.34,1.36,6.58,6.58,0,0,1,.18,2.41c-.05.71.5,1.31.23,2a3.7,3.7,0,0,1,1.43,2.16,1.15,1.15,0,0,0,.68.95c.31.13.12.67.54.79s.83,0,1.24,0c1-.08,2-.26,2.41-1.37a.18.18,0,0,1,.09-.08c.48-.29.4-1.22,1.3-1.06.54.1,1.12-.05,1.65.26a5.1,5.1,0,0,0,2.06.29c.45-.05.91,0,1.37,0a2.3,2.3,0,0,0,1.77-1.51c0-.12,0-.28,0-.36a6.06,6.06,0,0,1-.69-2.21c-.11-.46-.69-.61-.56-1.16s-.32-.8-.25-1.27a8.78,8.78,0,0,0,0-1.36c-.11-.21-.43,0-.5-.28-.18-.64-.38-1.27-.55-1.91a21.78,21.78,0,0,1-.2-4c0-.28-.07-.59.24-.78-.17-.18-.45-.34-.47-.54-.15-1.25-.91-2.37-.78-3.68,0-.15,0-.3.06-.46l.95.16c0,.45-.06.91.43,1.22a.78.78,0,0,1,.3.6,5.2,5.2,0,0,0,.68,2.6,1,1,0,0,1,0,.92c-.14.19-.1.38-.15.56-.12.36.44.6.21.87a1.27,1.27,0,0,0-.21.8,3.11,3.11,0,0,0,.3,1.5,11.17,11.17,0,0,1,.7,2.46c0,.29,0,.57.28.76a2.44,2.44,0,0,1,.91,1.73,6.85,6.85,0,0,1,.34,1.63c0,.71.57,1.3.48,2a.22.22,0,0,0,.12.19c.89.34,1.29,1.25,1.95,1.69.67.28.78-.3,1.37-.19.22,0,.14-.25.22-.35a1.79,1.79,0,0,1,1.48-.82.08.08,0,0,0,0,0s.09.08.15.11,0-.19-.05-.22c-.07-.36-.33-.68-.11-1.12a2.34,2.34,0,0,0,.14.47l1,3.38c-.06,0-.12-.13-.18-.13-.34,0-.62.31-1,0-.27-.2-.86,0-1.17-.14a3,3,0,0,0-.74-.37,2.39,2.39,0,0,0-1.33.22,10.1,10.1,0,0,1-3.95.69,1.27,1.27,0,0,0-1.12.33c-.37.38-.94.19-1.4.12-.22,0-.83-.3-.93-.56l-1.15.22a3.69,3.69,0,0,0-2.76,1.92c-.09.13-.18.32-.3.36a7.63,7.63,0,0,1-2.38.85,7.83,7.83,0,0,1-2.4-.2,8.69,8.69,0,0,0-2.11-.05,1,1,0,0,0-.62.28,6.67,6.67,0,0,1-2.63,1.17,10.6,10.6,0,0,0-2.41,1.11c-.54.28-1.08.62-1.61.94-.87.52-1,.82-.82,1.9.06.43,0,.82.53,1,.31.12.29.79.86.59a1.22,1.22,0,0,0,.79.47,10.23,10.23,0,0,1,1.47.5c.23.16.39.78.49.84s.11.17.18.35.39.21.5.23c.74.07,1.16.74,1.84.9l1.53,1.29a16.42,16.42,0,0,1,1.63,1.37,7,7,0,0,0,.86.78c.21.12.45-.07.66,0,.74.36.84.54,1.73.29a1.6,1.6,0,0,1,1.75.21c.76.41,1.67.46,2.46.83.62.3,1.21.76,1.86,1A8.69,8.69,0,0,1,215,165c.1.05.42.53.57.64.55.42,1.17.73,1.73,1.18a5.11,5.11,0,0,1,1.22,1.14c.35.55.83,1,1.18,1.49s.18.59.57,1c.24.24.57.39.82.62.61.58.6,1.28,1.06,1.88.19.25.49.18.69.44s.15.58.26.84a3.6,3.6,0,0,0,1.29,1.62,4.77,4.77,0,0,1,.83.65c.19.23.11.49.39.75.54.5,1.2.55,1.64,1.28.28.46.16.68.64.91.17.09.45-.24.54-.24s.71.19.9.22c.41.06.8.12,1.21.2a3.36,3.36,0,0,1,1.34.34c.3.18.5.56.79.72.76.41.16-.05.82-.26.34-.11.52.16.81.21a5.1,5.1,0,0,0,.59.12h0a5.36,5.36,0,0,0,1.65.45h0Z" transform="translate(-107.95 -54.1)" style="fill:url(#radial-gradient-2)"/><path d="M185.25,76.34c-.57.4-1.06.81-1.63.3a.64.64,0,0,0-.49,0c-1.61.47-3.34.44-4.88,1.18-.1,0-.28.07-.33,0-.48-.49-.78-.15-1.14.18-.19.18-.47.24-.69.43a1.77,1.77,0,0,1-1.32.44,3.13,3.13,0,0,0-2,.35c-.24.16-.61-.15-1-.13s-.65.32-1.06,0c-.16-.11-.43-.13-.62-.31a1.4,1.4,0,0,0-1.17-.47.59.59,0,0,1-.53-.23c-.11-.11-.18-.27-.39-.28-1.21,0-2.06-.87-3-1.43a2.8,2.8,0,0,0-.71-.4,2.51,2.51,0,0,1-1.63-1.15c-.11-.17-.31-.21-.51-.28-.52-.18-1.25-.22-1.14-1.1,0-.08-.15-.24-.25-.26a1.43,1.43,0,0,1-1-.68,2.08,2.08,0,0,0-.94-.69c-1.1-.41-1.68-1.39-2.53-2-.36-.27-.79-.76-1.36-.27-.27.24-.48-.23-.6-.16-.54.29-1.18.05-1.64.27a3.79,3.79,0,0,1-1.54.2,3.18,3.18,0,0,0-1.52.26,2.14,2.14,0,0,1-1.52.23c-.42-.09-.65.31-1,.28a6.09,6.09,0,0,0-1.13,0,11.25,11.25,0,0,1-2.89-.28,1.53,1.53,0,0,1-.93-.46c-.28-.3-.58-.6-.88-.88a2.42,2.42,0,0,1-.76-2.07.69.69,0,0,1,1,.39,4.85,4.85,0,0,0,.66,1.11,4.53,4.53,0,0,0,3.52,1.17c.52-.11.93-.57,1.54-.5.41,0,.62-.62,1.21-.27.37.22.81-.16,1.17-.43a.76.76,0,0,1,.48,0c1.39.19,2.73-.34,4.12-.25-.1-.54-.6-.47-.87-.71,0,0-.26.34-.32.07-.27-1.21-1.36-1.55-2.19-2.18a1.32,1.32,0,0,1-.55-.63,1.86,1.86,0,0,0-1.24-1.32,3.24,3.24,0,0,0-.57-1.89l1.83.55c.26.22.67.74,1.15,1.19a5.06,5.06,0,0,1,1.21,1.62,3.14,3.14,0,0,0,2.07,1.52,1.51,1.51,0,0,1,.81.45c1,1.11,2.26,1.94,3,3.25.48.1.68.57,1.06.78a3.65,3.65,0,0,1,1.4,1.41,1.16,1.16,0,0,0,.56.41,3.23,3.23,0,0,1,1.52,1.15c.27.43.85.56,1.25.85s1,.17.92.82c0,.12.17.12.28.17,1.39.56,2.84,1,4.22,1.57a2.78,2.78,0,0,0,2.62.22,2.65,2.65,0,0,1,1.35,0,3.71,3.71,0,0,0,1.59-.2,40.39,40.39,0,0,1,4.06-1.07c.93-.25,1.87-.52,2.79-.81.45-.14.78-.26,1.2,0a1.81,1.81,0,0,0,1.32.28Z" transform="translate(-107.95 -54.1)" style="fill:url(#linear-gradient-2)"/><path d="M198.32,177.33a4,4,0,0,1-.32,2c-.31.75-.54,1.69-1.43,2.06-.37-.05-.3-.33-.25-.48a11.39,11.39,0,0,0,.74-3.69c.54-.68,0-1.6.47-2.31.11-.16,0-.52-.09-.81a1.59,1.59,0,0,1-.06-1.36l1.18.87h0C198.7,174.88,198.16,176.09,198.32,177.33Z" transform="translate(-107.95 -54.1)" style="fill:url(#linear-gradient-3)"/><path d="M229.73,270.06a5.64,5.64,0,0,0-2.1-.68,4.82,4.82,0,0,1-1.41-.17c-.42-.18-.73-.75-1.13-.85s-.85.6-1.46.51-1.06-.67-1.6-.86-1-.15-1.45-.27-1.12-.47-1.7-.64a17.42,17.42,0,0,0-3.94-.49c-1.25-.06-2.16-1.09-3.4-1a4.48,4.48,0,0,0,1.29-1.62c.15-.81-.66-1.45-.87-2.15a.43.43,0,0,0,0-.58,1.16,1.16,0,0,1-.16-.61,2.46,2.46,0,0,1,0-1.08c.22-.61,1-1.24,1.09-1.9.1.09.63-.92.35-1.13.79-1.44.31-3,.07-4.49a9.66,9.66,0,0,1,0-2.52c.06-.48.18-1.53-.31-1.28.18-.52-.1-.94-.18-1.44s0-1.77,0-2c0,0,0-.07,0-.09-.09-.2-.24-.37-.42-.31a10.35,10.35,0,0,1,1-4.32,5.71,5.71,0,0,0,.35-3.11c-.11-.6,0-1.43-.15-2.11s-.71-1.19-.73-1.89c0-1.6.65-3.17.33-4.73a6.89,6.89,0,0,1-.26-1.89,12.6,12.6,0,0,0,.52-2.47,14.72,14.72,0,0,1,.3-3,6.81,6.81,0,0,0,.17-1.27c0-.29-.24-.53-.27-.84,0-.65.06-1.36,0-2a4.18,4.18,0,0,0-.92-1.86,7,7,0,0,1-.91-2,8.26,8.26,0,0,1,.38-2.45,3.86,3.86,0,0,1,.23-.65c.1-.18.64-.37.54-.88-.13-.69.19-.82.19-1a1.8,1.8,0,0,1,.11-.76,4.86,4.86,0,0,0,.39-2.37c-.09-.48-.2-4.34-.13-4.84s.46-1.29.63-1.89a3.53,3.53,0,0,0,.16-1.23,6.67,6.67,0,0,1,.26-1.15c0-.3-.1-.49-.1-.78a8.63,8.63,0,0,1,.15-1c.1-.82.08-1.66.17-2.48a10.19,10.19,0,0,0-.27-1.94c0-.28.2-.39.19-.68s-.21-.47-.21-.68c0-.66.3-1.1,0-1.82a9.41,9.41,0,0,1-.58-1.09l0-.15-1.77-1.32a10.93,10.93,0,0,0,.13,1.37,23.25,23.25,0,0,0,.77,2.22c.22.78-.11,1.31-.11,2.1a9.82,9.82,0,0,1,0,2.36,5.78,5.78,0,0,0,0,1.69,17.29,17.29,0,0,0-.49,2.65c.08.65.35,1,.2,1.69s-.71,2.62-.73,2.7c-.07.31-.37.21-.5.39-.5.71.66,2.59.62,2.83a19,19,0,0,0-.12,2.39,5.68,5.68,0,0,1,0,1c-.1.32-.48.49-.67.78a11.25,11.25,0,0,0-1,3.35,2.19,2.19,0,0,0,.08,2.05,17.34,17.34,0,0,0,.89,2.08,3.26,3.26,0,0,1,.68,2.36,13.69,13.69,0,0,1-.31,2.64c-.1.37-.24.66-.51.73s-.65-.11-.88-.07c-.63.11-1.33.62-2.05.37-.36-.13-.62-.34-1-.48a10.83,10.83,0,0,0-1.18-.38,6.07,6.07,0,0,1-1.35-.32c-.46-.25-.76-.8-1.22-1.06a14.35,14.35,0,0,0-6.3-2c-.62,0-1.09,0-1.68,0-.82-.07-1.57,0-2.39-.14l-2.25-.37a25.26,25.26,0,0,0-2.74.09,8,8,0,0,1-2-.53c-.72-.21-1.47,0-2.18-.42-.43-.22-.81-.7-1.3-.82l-.63,0a3.07,3.07,0,0,1-.95-.28,6.84,6.84,0,0,0-1.06-.5c-.29-.07-.73,0-1-.17s0-.3-.07-.49c-.18-.35,0-.33-.58-.54a29.81,29.81,0,0,1-3.59-1.72c-.08-.05-.1-.32-.21-.41a3.35,3.35,0,0,0-.65-.27,10,10,0,0,0-1.68-.2c-.85-.1-1.71-.26-2.55-.36-.3,0-.47.07-.76,0a4.79,4.79,0,0,0-1.25-.37,6.29,6.29,0,0,1-1.88-.32c-.23-.1-.28-.4-.56-.44s-.5.29-.87.22-.64-.35-1-.44a6.24,6.24,0,0,1-.94-.26c-.26-.12-.45-.37-.75-.45s-.36.1-.46.08-.22-.13-.45-.2c-.64-.19-1-.65-1.59-.9-.78-.33-1.69-.17-2.42-.66-.38-.26-1.08-1.11-1.61-.46-.16.2,0,1.1.21,1.37.35.59,1.68.74,2.27.86a2.56,2.56,0,0,1,1.12.39,9.6,9.6,0,0,0,1,.72,15,15,0,0,0,4.39,2,3.4,3.4,0,0,0,.77,0,3.68,3.68,0,0,1,1,.23c.68.14,1.4.21,2.1.34a21.19,21.19,0,0,1,3.05.64,3.54,3.54,0,0,1,1.74,1.11c.62.62,1.6.49,2.42.8s1.66.91,2.53,1.19c.58.19,1,0,1.6.21a6.85,6.85,0,0,0,.69.38c.35.08.78-.14,1.16-.09a7,7,0,0,1,2.2.73c.42.24.47.38.91.46.17,0,.18-.16.29-.15s.37.19.57.27a31.26,31.26,0,0,0,5.61,1.06,19,19,0,0,0,2.59.37c.65,0,1.28-.07,1.92,0,.22,0,.45.21.64.21s.39-.18.65-.2a9.22,9.22,0,0,1,1,.19c.3,0,.55-.14.79-.13a7.73,7.73,0,0,1,1.62.55c.58.17,1.13.07,1.67.41.14.09.26.35.41.46s.37.11.51.2c.77.46,1.2,1.17,2.13,1.43.35.1.75,0,1.09.17s.49.35.79.45a18.42,18.42,0,0,0,1.9.41c.78.16,1.18-.16,1.94-.34s1.18,0,1.3.87a7.32,7.32,0,0,1-.11,1.62,8.78,8.78,0,0,0,.39,2.17,12.93,12.93,0,0,1,0,4.17,8,8,0,0,0-.44,2.21,10.74,10.74,0,0,0,.31,1.09,6.84,6.84,0,0,1-.06.91,6.52,6.52,0,0,1,.13,2.38c-.05.15-.24.28-.29.43a5.4,5.4,0,0,0-.13.72c0,.28-.28.67-.36,1a1.56,1.56,0,0,0,0,.35,2.54,2.54,0,0,0-.12.31c0,.3-.14.62-.18.85a3.61,3.61,0,0,0,.2,1.48,3.25,3.25,0,0,1,.12.47c0,.12-.13.38-.12.49a4.47,4.47,0,0,0,.38,1.06,1.49,1.49,0,0,1,0,1.29c-.06.16-.16.39-.21.52-.11.28-.28,0-.28.53.56,0,1.08,1.68,1,2.28,0,.32-.22.61-.25,1,0,.59,0,1.21,0,1.8a17.63,17.63,0,0,1-.49,2.38,21.34,21.34,0,0,1-.33,2.42c-.38,1.54-.52,3.4-1.25,4.81a3,3,0,0,1-1,1.3,5.17,5.17,0,0,0-1.59,1.54c-.4-.4-1.21-.29-1.65-.38-.67-.13-1.63.22-2.21-.24-.29-.23-.17-.78-.41-.93s-1.07.28-1.22.32a6.33,6.33,0,0,1-1.34.36,5.28,5.28,0,0,0-1.4.39c-.35.18-.37.29-.75.2-.15,0-.55-.41-.76-.51a7.3,7.3,0,0,1-.91-.41c-.33-.23-.54-.64-.87-.85s-.61-.12-1-.27c-.77-.26-1.46-1-2.22-1.37s-1.13,0-1.87-.1c-.56-.11-1.15-.6-1.73-.63s-1,.14-1.56.14a13.45,13.45,0,0,0-2.2-.22c-.31,0-.63.23-.92.26s-.34-.16-.52-.16a7.25,7.25,0,0,0-.75.24c-.47.06-.27,0-.86-.07-.77-.09-1.71.54-2.4.38-.18,0-.35-.34-.56-.42-.15.24-.3.27-.44.09a1.77,1.77,0,0,0-.49-.26,6.56,6.56,0,0,0-.87-.23c0-.1-.36-.31-.47-.16l-.56-.12c-.34,0-.72-.09-1.07-.15s-3.59-.9-3.55-.76a4.31,4.31,0,0,0-1.42-.45c-1,0-1.39.69-2.36.39s-1.33-.87-2.18-1a10.18,10.18,0,0,0-3.81-.12c-.55.08-1.11,0-1.65.1a6.39,6.39,0,0,0-.84.24,19,19,0,0,1-2.25.19c-.34,0-1,0-1.21.34a.43.43,0,0,0-.08.21h0l.88,1.07a7.38,7.38,0,0,0,1-.26c.78-.18,1.63-.1,2.41-.23a7.57,7.57,0,0,1,2.9-.27,6.36,6.36,0,0,1,1.49.43c.59.25.74.74,1.19,1a6.88,6.88,0,0,0,1.66.12,5.44,5.44,0,0,0,1-.14,13.56,13.56,0,0,1,1.56,0c.56,0,1.15-.21,1.68-.22s.46.08.92.3,1,.27,1.51.45.71.41,1.25.4a3.75,3.75,0,0,1,1.12-.09c.61.11,1.18.41,1.79.54s1.37.07,2.06.17a10.5,10.5,0,0,0,3.49-.09,9.85,9.85,0,0,1,1.4-.16c.08,0,.22.16.34.15s.62-.18.92-.19c.86,0,2.37-.21,2.74.76.19.47-.12.78-.18,1.3a5.32,5.32,0,0,0,.23,1.77c.21.88.78,1.29,1.1,2a10.93,10.93,0,0,1,.39,1.14c.06.45-.2.55-.29,1s.23.77.15,1.09-.42.53-.53.74a2.54,2.54,0,0,0-.31,2.68c.6,1.1,0,1.82.1,3s.82,1.32,1.53,2.06a8.67,8.67,0,0,1,1.55,2.31c.44,1-.1,2.15.2,3.17.13.44.5.71.63,1.13.18.61-.08.93-.25,1.51-.37,1.31.17,2.45.67,3.67a11.7,11.7,0,0,0,1.26,2.87c.42.55.71.62.61,1.38-.07.61-.4,1.06-.08,1.64a10.3,10.3,0,0,0,1.06,1.14c.41.5.61.44,1.15.74.29.17.44.6.66.77h0l1.34-.61a2.12,2.12,0,0,0-.4-1.22c-.08-.13-.21-.23-.3-.35a2.17,2.17,0,0,0-.44-.36c0-.12,0-.25.07-.37a15.13,15.13,0,0,0-.45-1.52c-.18-.44-.18-.84-.33-1.28s-.89-1-1.18-1.55a6.81,6.81,0,0,1-.65-2.08,10.92,10.92,0,0,1-.2-4.06c.1-.39.4-.67.51-1.09a3.77,3.77,0,0,1,.59-1.63,12.56,12.56,0,0,1,1.2-1.22c.35-.32,1-.45,1.23-.82,0-.13.23-.43.34-.5a4.84,4.84,0,0,0,.87-.68c.37-.36,1.84-2.09,2.2-2a12.74,12.74,0,0,0,1.59-2.09,8.28,8.28,0,0,1,1.48-2.4,3.06,3.06,0,0,0,1.16-2.35c0-.19,0-.22.08-.47,0-.1.44-.39.52-.59a3,3,0,0,1,.26-.67c.15-.21.56-.39.77-.62a3.3,3.3,0,0,1,2.12-1.45,3.5,3.5,0,0,1,2.52.39,3,3,0,0,0,2.4.57c.5-.17.73-.42,1.31-.29s.9.53,1.42.64a10.33,10.33,0,0,1,1.26.16c.5.16.93.56,1.43.74s1.19.29,1.77.52a2.23,2.23,0,0,0,.61.27c.18,0,.38-.13.53-.11a8.16,8.16,0,0,1,.87.24c.52.1,1.07-.08,1.62.06s2,1.13,2.67,1l.44-1.85A.24.24,0,0,0,229.73,270.06Zm-23.16-1.45c-.69.37-.38,1-.53,1.57s-.55.86-.71,1.34c-.24.71-.15.59-.77,1.08-.11.08-.15.28-.24.35s-.46.2-.6.35c-.37.38-.35.79-.73,1.07s-.91.34-1.17.64a7.38,7.38,0,0,0-.63,1.4c-.11.23-.21.5-.33.72a5.85,5.85,0,0,1-.56.75,18.26,18.26,0,0,1-2,2.18,6.39,6.39,0,0,1-1.24.89,3.9,3.9,0,0,0-1.16,1.73c-.24.51-.31,1.07-.85,1-.77-.07-.57-.7-.69-1.17a4.22,4.22,0,0,0-.52-1.3c0-.08.05-.33,0-.45s-.37-.16-.47-.43.18-.86.07-1.25a1.57,1.57,0,0,0-.65-.79c-.49-.4-1.06-.7-1.28-1.35s.34-1.21.41-2c0-.59-.36-1.09-.25-1.66s.58-1,.43-1.69c-.09-.41-.22-.4-.22-.79s.25-.55.24-.89c0-.64-.43-1.3-.51-2a6.5,6.5,0,0,0-.51-1.82c-.35-.84-.1-1.12-.1-1.92,0-.54-.71-1.12-.43-1.45s1.15,0,1.44.23.55.63.89.88l.3,0c.26-.08.4,0,.42.31.14.1.26.39.4.5.48.39,1.1.37,1.65.59.18.07.47.26.64.35h.41a3,3,0,0,1,.41.39c.47.17.86-.06,1.23,0l.17-.12q.27,0,.33.27c.27,0,.59-.23.89-.26a9.93,9.93,0,0,1,1.71-.1c.3,0,.27.26.49.33s.72.13,1,.19c1,.2,1.68-.36,2.69-.16C206.44,266.3,207.8,267.93,206.57,268.61Z" transform="translate(-107.95 -54.1)" style="fill:url(#linear-gradient-4)"/></g></g></g></svg>